<svg xmlns="http://www.w3.org/2000/svg" version="1.1" xmlns:xlink="http://www.w3.org/1999/xlink" xmlns:svgjs="http://svgjs.dev/svgjs" width="1440" height="560" preserveAspectRatio="none" viewBox="0 0 1440 560"><g mask="url(&quot;#SvgjsMask1004&quot;)" fill="none"><rect width="1440" height="560" x="0" y="0" fill="rgba(64, 61, 57, 1)"></rect><path d="M-68.03309788588598 10.855644305711358L2.9667700865516196 163.1153525278685 155.22647830870875 92.1154845554309 84.22661033627116-60.14422366672624z" fill="rgba(204, 197, 185, 0.4)" class="triangle-float3"></path><path d="M13.027196045724963-68.80208468823615L-60.61915661484004 82.1953150900239 90.37824316342001 155.8416677505889 164.024595823985 4.844267972328851z" fill="rgba(204, 197, 185, 0.4)" class="triangle-float3"></path><path d="M97.933,231.294C140.634,229.573,162.571,184.57,182.656,146.848C201.052,112.297,219.579,72.895,200.456,38.741C181.037,4.059,137.667,-5.519,97.933,-4.465C60.325,-3.468,24.104,11.883,4.415,43.941C-16.212,77.526,-17.113,118.927,0.49,154.192C20.316,193.912,53.576,233.082,97.933,231.294" fill="rgba(204, 197, 185, 0.4)" class="triangle-float1"></path><path d="M1316.8616186350591 120.83478124283975L1502.545486334792 71.27055637066891 1385.8428800976806-49.57853008622442z" fill="rgba(204, 197, 185, 0.4)" class="triangle-float2"></path><path d="M1449.621,242.313C1497.665,244.777,1551.625,236.061,1575.401,194.24C1599.009,152.716,1575.59,104.047,1551.767,62.646C1527.86,21.097,1497.44,-21.006,1449.621,-24.355C1396.769,-28.056,1343.311,-0.849,1319.274,46.365C1296.854,90.403,1316.995,141.245,1344.365,182.39C1368.331,218.418,1406.407,240.097,1449.621,242.313" fill="rgba(204, 197, 185, 0.4)" class="triangle-float2"></path><path d="M1431.3021560262346 179.22632940038406L1499.6339120629689 25.75069251642708 1346.158275179012-42.58106352030728 1277.8265191422777 110.8945733636497z" fill="rgba(204, 197, 185, 0.4)" class="triangle-float3"></path><path d="M165.42737669025948 577.8096975533044L133.37146546699992 412.89633073409686-31.541901352207617 444.9522419573565 0.5140098710519396 609.8656087765639z" fill="rgba(204, 197, 185, 0.4)" class="triangle-float1"></path><path d="M127.583,709.062C173.781,707.705,210.851,676.975,235.679,637.992C263.026,595.053,287.328,542.136,262.034,497.957C236.646,453.614,178.68,449.354,127.583,449.189C76.081,449.022,18.507,453.158,-8.385,497.082C-36.086,542.329,-20.749,600.029,7.894,644.685C34.108,685.554,79.05,710.488,127.583,709.062" fill="rgba(204, 197, 185, 0.4)" class="triangle-float3"></path><path d="M-48.012112871003886 422.73683123129047L-27.538063178939005 589.4845847070326 139.20969029680307 569.0105350149677 118.7356406047382 402.26278153922556z" fill="rgba(204, 197, 185, 0.4)" class="triangle-float3"></path><path d="M1282.8872921883221 419.1563641678852L1297.5294569699288 586.5170734472985 1450.2480014677353 404.5141993862786z" fill="rgba(204, 197, 185, 0.4)" class="triangle-float3"></path><path d="M1449.9966329107442 389.6904786701184L1287.7210940941807 433.1720782473419 1331.2026936714042 595.4476170639053 1493.4782324879677 551.966017486682z" fill="rgba(204, 197, 185, 0.4)" class="triangle-float3"></path><path d="M1421.3333333333333 410.6666666666667L1309.3333333333333 410.6666666666667 1365.3333333333333 578.6666666666667z" fill="rgba(204, 197, 185, 0.4)" class="triangle-float1"></path></g><defs><mask id="SvgjsMask1004"><rect width="1440" height="560" fill="#ffffff"></rect></mask><style>
                @keyframes float1 {
                    0%{transform: translate(0, 0)}
                    50%{transform: translate(-10px, 0)}
                    100%{transform: translate(0, 0)}
                }

                .triangle-float1 {
                    animation: float1 5s infinite;
                }

                @keyframes float2 {
                    0%{transform: translate(0, 0)}
                    50%{transform: translate(-5px, -5px)}
                    100%{transform: translate(0, 0)}
                }

                .triangle-float2 {
                    animation: float2 4s infinite;
                }

                @keyframes float3 {
                    0%{transform: translate(0, 0)}
                    50%{transform: translate(0, -10px)}
                    100%{transform: translate(0, 0)}
                }

                .triangle-float3 {
                    animation: float3 6s infinite;
                }
            </style></defs></svg>