<svg xmlns="http://www.w3.org/2000/svg" version="1.1" xmlns:xlink="http://www.w3.org/1999/xlink" xmlns:svgjs="http://svgjs.dev/svgjs" width="1440" height="560" preserveAspectRatio="none" viewBox="0 0 1440 560"><g mask="url(&quot;#SvgjsMask1004&quot;)" fill="none"><rect width="1440" height="560" x="0" y="0" fill="rgba(64, 61, 57, 1)"></rect><path d="M0,381.49C73.981,383.263,154.348,375.88,210.854,328.095C265.653,281.753,276.356,203.603,292.923,133.774C306.812,75.231,305.482,16.832,298.888,-42.974C292.077,-104.748,288.32,-168.262,253.915,-220.018C217.011,-275.532,166.206,-331.509,100.325,-341.674C35.35,-351.699,-16.807,-290.584,-79.718,-271.494C-141.822,-252.649,-215.464,-271.204,-266.019,-230.507C-319.007,-187.852,-340.525,-117.584,-353.788,-50.867C-367.572,18.469,-369.501,91.104,-342.983,156.635C-315.827,223.741,-265.001,278.455,-204.459,318.145C-143.556,358.072,-72.803,379.746,0,381.49" fill="#33312e"></path><path d="M1440 1147.685C1546.286 1117.8519999999999 1589.0529999999999 993.7180000000001 1671.696 920.5260000000001 1738.245 861.588 1831.2559999999999 835.672 1877.811 759.942 1927.3229999999999 679.403 1945.783 582.66 1937.282 488.502 1928.505 391.277 1884.0230000000001 303.508 1829.306 222.664 1768.739 133.178 1708.312 29.71199999999999 1605.103-2.288000000000011 1501.615-34.375 1394.371 20.49000000000001 1292.036 56.081999999999994 1194.38 90.04700000000003 1096.974 126.25799999999998 1024.2359999999999 199.73899999999998 948.399 276.351 876.064 370.817 873.797 478.592 871.583 583.857 974.54 657.022 1012.5509999999999 755.2090000000001 1053.981 862.2280000000001 1021.787 1001.604 1106.318 1079.219 1191.684 1157.6 1328.42 1179.004 1440 1147.685" fill="#4d4944"></path></g><defs><mask id="SvgjsMask1004"><rect width="1440" height="560" fill="#ffffff"></rect></mask></defs></svg>